<?xml version="1.0" encoding="UTF-8" standalone="no"?>
<!-- Created by diasvg.py -->
<svg width="46.551cm" height="22.337cm" viewBox="-15.550 -11.850 31.001 10.487"
 xmlns="http://www.w3.org/2000/svg"
 xmlns:xlink="http://www.w3.org/1999/xlink">
<rect x="-15.500" y="-10.800" width="46.451" height="21.237" fill="#FFFFFF" stroke="none" stroke-width="0"/>
<rect x="-15.500" y="-10.800" width="46.451" height="21.237" fill="none" stroke="#000000" stroke-width="0.100" />
<rect x="-15.500" y="-11.800" width="6.150" height="1.000" fill="#FFFFFF" stroke="none" stroke-width="0"/>
<rect x="-15.500" y="-11.800" width="6.150" height="1.000" fill="none" stroke="#000000" stroke-width="0.100" />
<text x="-15.400" y="-11.300"  fill="#000000" text-anchor="start" font-size="0.80" font-family="monospace" font-style="normal" font-weight="400">
org.antlr.runtime</text>
<rect x="1.850" y="-9.050" width="9.447" height="1.400" fill="#FFFFFF" stroke="none" stroke-width="0"/>
<rect x="1.850" y="-9.050" width="9.447" height="1.400" fill="none" stroke="#000000" stroke-width="0.100" />
<text x="6.574" y="-8.050"  fill="#000000" text-anchor="middle" font-size="1.00" font-family="sans" font-style="normal" font-weight="700">
RecognitionException</text>
<rect x="1.850" y="-7.650" width="9.447" height="0.400" fill="#FFFFFF" stroke="none" stroke-width="0"/>
<rect x="1.850" y="-7.650" width="9.447" height="0.400" fill="none" stroke="#000000" stroke-width="0.100" />
<rect x="1.850" y="-7.250" width="9.447" height="0.400" fill="#FFFFFF" stroke="none" stroke-width="0"/>
<rect x="1.850" y="-7.250" width="9.447" height="0.400" fill="none" stroke="#000000" stroke-width="0.100" />
<rect x="-13.600" y="-4.100" width="8.183" height="1.400" fill="#FFFFFF" stroke="none" stroke-width="0"/>
<rect x="-13.600" y="-4.100" width="8.183" height="1.400" fill="none" stroke="#000000" stroke-width="0.100" />
<text x="-9.509" y="-3.100"  fill="#000000" text-anchor="middle" font-size="1.00" font-family="sans" font-style="normal" font-weight="700">
EarlyExitException</text>
<rect x="-13.600" y="-2.700" width="8.183" height="0.400" fill="#FFFFFF" stroke="none" stroke-width="0"/>
<rect x="-13.600" y="-2.700" width="8.183" height="0.400" fill="none" stroke="#000000" stroke-width="0.100" />
<rect x="-13.600" y="-2.300" width="8.183" height="0.400" fill="#FFFFFF" stroke="none" stroke-width="0"/>
<rect x="-13.600" y="-2.300" width="8.183" height="0.400" fill="none" stroke="#000000" stroke-width="0.100" />
<rect x="15.820" y="-0.540" width="13.422" height="1.400" fill="#FFFFFF" stroke="none" stroke-width="0"/>
<rect x="15.820" y="-0.540" width="13.422" height="1.400" fill="none" stroke="#000000" stroke-width="0.100" />
<text x="22.531" y="0.460"  fill="#000000" text-anchor="middle" font-size="1.00" font-family="sans" font-style="normal" font-weight="700">
MismatchedTreeNodeException</text>
<rect x="15.820" y="0.860" width="13.422" height="0.400" fill="#FFFFFF" stroke="none" stroke-width="0"/>
<rect x="15.820" y="0.860" width="13.422" height="0.400" fill="none" stroke="#000000" stroke-width="0.100" />
<rect x="15.820" y="1.260" width="13.422" height="0.400" fill="#FFFFFF" stroke="none" stroke-width="0"/>
<rect x="15.820" y="1.260" width="13.422" height="0.400" fill="none" stroke="#000000" stroke-width="0.100" />
<rect x="-14.110" y="-0.230" width="10.938" height="1.400" fill="#FFFFFF" stroke="none" stroke-width="0"/>
<rect x="-14.110" y="-0.230" width="10.938" height="1.400" fill="none" stroke="#000000" stroke-width="0.100" />
<text x="-8.641" y="0.770"  fill="#000000" text-anchor="middle" font-size="1.00" font-family="sans" font-style="normal" font-weight="700">
FailedPredicateException</text>
<rect x="-14.110" y="1.170" width="10.938" height="0.400" fill="#FFFFFF" stroke="none" stroke-width="0"/>
<rect x="-14.110" y="1.170" width="10.938" height="0.400" fill="none" stroke="#000000" stroke-width="0.100" />
<rect x="-14.110" y="1.570" width="10.938" height="0.400" fill="#FFFFFF" stroke="none" stroke-width="0"/>
<rect x="-14.110" y="1.570" width="10.938" height="0.400" fill="none" stroke="#000000" stroke-width="0.100" />
<rect x="-12.740" y="2.830" width="12.117" height="1.400" fill="#FFFFFF" stroke="none" stroke-width="0"/>
<rect x="-12.740" y="2.830" width="12.117" height="1.400" fill="none" stroke="#000000" stroke-width="0.100" />
<text x="-6.681" y="3.830"  fill="#000000" text-anchor="middle" font-size="1.00" font-family="sans" font-style="normal" font-weight="700">
MismatchedRangeException</text>
<rect x="-12.740" y="4.230" width="12.117" height="0.400" fill="#FFFFFF" stroke="none" stroke-width="0"/>
<rect x="-12.740" y="4.230" width="12.117" height="0.400" fill="none" stroke="#000000" stroke-width="0.100" />
<rect x="-12.740" y="4.630" width="12.117" height="0.400" fill="#FFFFFF" stroke="none" stroke-width="0"/>
<rect x="-12.740" y="4.630" width="12.117" height="0.400" fill="none" stroke="#000000" stroke-width="0.100" />
<rect x="1.080" y="-1.610" width="10.895" height="1.400" fill="#FFFFFF" stroke="none" stroke-width="0"/>
<rect x="1.080" y="-1.610" width="10.895" height="1.400" fill="none" stroke="#000000" stroke-width="0.100" />
<text x="6.527" y="-0.610"  fill="#000000" text-anchor="middle" font-size="1.00" font-family="sans" font-style="normal" font-weight="700">
MismatchedSetException</text>
<rect x="1.080" y="-0.210" width="10.895" height="0.400" fill="#FFFFFF" stroke="none" stroke-width="0"/>
<rect x="1.080" y="-0.210" width="10.895" height="0.400" fill="none" stroke="#000000" stroke-width="0.100" />
<rect x="1.080" y="0.190" width="10.895" height="0.400" fill="#FFFFFF" stroke="none" stroke-width="0"/>
<rect x="1.080" y="0.190" width="10.895" height="0.400" fill="none" stroke="#000000" stroke-width="0.100" />
<rect x="0.350" y="5.950" width="12.357" height="1.400" fill="#FFFFFF" stroke="none" stroke-width="0"/>
<rect x="0.350" y="5.950" width="12.357" height="1.400" fill="none" stroke="#000000" stroke-width="0.100" />
<text x="6.529" y="6.950"  fill="#000000" text-anchor="middle" font-size="1.00" font-family="sans" font-style="normal" font-weight="700">
MismatchedNotSetException</text>
<rect x="0.350" y="7.350" width="12.357" height="0.400" fill="#FFFFFF" stroke="none" stroke-width="0"/>
<rect x="0.350" y="7.350" width="12.357" height="0.400" fill="none" stroke="#000000" stroke-width="0.100" />
<rect x="0.350" y="7.750" width="12.357" height="0.400" fill="#FFFFFF" stroke="none" stroke-width="0"/>
<rect x="0.350" y="7.750" width="12.357" height="0.400" fill="none" stroke="#000000" stroke-width="0.100" />
<rect x="16.620" y="-5.390" width="9.380" height="1.400" fill="#FFFFFF" stroke="none" stroke-width="0"/>
<rect x="16.620" y="-5.390" width="9.380" height="1.400" fill="none" stroke="#000000" stroke-width="0.100" />
<text x="21.310" y="-4.390"  fill="#000000" text-anchor="middle" font-size="1.00" font-family="sans" font-style="normal" font-weight="700">
NoViableAltException</text>
<rect x="16.620" y="-3.990" width="9.380" height="0.400" fill="#FFFFFF" stroke="none" stroke-width="0"/>
<rect x="16.620" y="-3.990" width="9.380" height="0.400" fill="none" stroke="#000000" stroke-width="0.100" />
<rect x="16.620" y="-3.590" width="9.380" height="0.400" fill="#FFFFFF" stroke="none" stroke-width="0"/>
<rect x="16.620" y="-3.590" width="9.380" height="0.400" fill="none" stroke="#000000" stroke-width="0.100" />
<rect x="14.040" y="2.670" width="11.908" height="1.400" fill="#FFFFFF" stroke="none" stroke-width="0"/>
<rect x="14.040" y="2.670" width="11.908" height="1.400" fill="none" stroke="#000000" stroke-width="0.100" />
<text x="19.994" y="3.670"  fill="#000000" text-anchor="middle" font-size="1.00" font-family="sans" font-style="normal" font-weight="700">
MismatchedTokenException</text>
<rect x="14.040" y="4.070" width="11.908" height="0.400" fill="#FFFFFF" stroke="none" stroke-width="0"/>
<rect x="14.040" y="4.070" width="11.908" height="0.400" fill="none" stroke="#000000" stroke-width="0.100" />
<rect x="14.040" y="4.470" width="11.908" height="0.400" fill="#FFFFFF" stroke="none" stroke-width="0"/>
<rect x="14.040" y="4.470" width="11.908" height="0.400" fill="none" stroke="#000000" stroke-width="0.100" />
<polyline fill="none" stroke="#000000" stroke-width="0.100"  points="6.574,-5.888 6.574,-4.230 6.527,-4.230 6.527,-1.660 "/>
<polygon fill="#FFFFFF" stroke="none" stroke-width="0.100" points="6.974,-5.888 6.574,-6.688 6.174,-5.888 "/>
<polygon fill="none" stroke="#000000" stroke-width="0.100"  points="6.974,-5.888 6.574,-6.688 6.174,-5.888 "/>
<polyline fill="none" stroke="#000000" stroke-width="0.100"  points="6.527,1.552 6.527,3.295 6.529,3.295 6.529,5.950 "/>
<polygon fill="#FFFFFF" stroke="none" stroke-width="0.100" points="6.927,1.552 6.527,0.752 6.127,1.552 "/>
<polygon fill="none" stroke="#000000" stroke-width="0.100"  points="6.927,1.552 6.527,0.752 6.127,1.552 "/>
<polyline fill="none" stroke="#000000" stroke-width="0.100"  points="0.888,-7.950 -1.809,-7.950 -1.809,-3.400 -5.418,-3.400 "/>
<polygon fill="#FFFFFF" stroke="none" stroke-width="0.100" points="0.888,-7.550 1.688,-7.950 0.888,-8.350 "/>
<polygon fill="none" stroke="#000000" stroke-width="0.100"  points="0.888,-7.550 1.688,-7.950 0.888,-8.350 "/>
<polyline fill="none" stroke="#000000" stroke-width="0.100"  points="12.260,-7.950 13.959,-7.950 13.959,-4.290 16.570,-4.290 "/>
<polygon fill="#FFFFFF" stroke="none" stroke-width="0.100" points="12.260,-8.350 11.460,-7.950 12.260,-7.550 "/>
<polygon fill="none" stroke="#000000" stroke-width="0.100"  points="12.260,-8.350 11.460,-7.950 12.260,-7.550 "/>
<polyline fill="none" stroke="#000000" stroke-width="0.100"  points="0.888,-7.950 -0.686,-7.950 -0.686,0.470 -3.173,0.470 "/>
<polygon fill="#FFFFFF" stroke="none" stroke-width="0.100" points="0.888,-7.550 1.688,-7.950 0.888,-8.350 "/>
<polygon fill="none" stroke="#000000" stroke-width="0.100"  points="0.888,-7.550 1.688,-7.950 0.888,-8.350 "/>
<polyline fill="none" stroke="#000000" stroke-width="0.100"  points="12.260,-7.950 13.584,-7.950 13.584,0.160 15.820,0.160 "/>
<polygon fill="#FFFFFF" stroke="none" stroke-width="0.100" points="12.260,-8.350 11.460,-7.950 12.260,-7.550 "/>
<polygon fill="none" stroke="#000000" stroke-width="0.100"  points="12.260,-8.350 11.460,-7.950 12.260,-7.550 "/>
<polyline fill="none" stroke="#000000" stroke-width="0.100"  points="0.888,-7.950 0.614,-7.950 0.614,3.930 -0.572,3.930 "/>
<polygon fill="#FFFFFF" stroke="none" stroke-width="0.100" points="0.888,-7.550 1.688,-7.950 0.888,-8.350 "/>
<polygon fill="none" stroke="#000000" stroke-width="0.100"  points="0.888,-7.550 1.688,-7.950 0.888,-8.350 "/>
<polyline fill="none" stroke="#000000" stroke-width="0.100"  points="12.260,-7.950 12.669,-7.950 12.669,3.770 13.990,3.770 "/>
<polygon fill="#FFFFFF" stroke="none" stroke-width="0.100" points="12.260,-8.350 11.460,-7.950 12.260,-7.550 "/>
<polygon fill="none" stroke="#000000" stroke-width="0.100"  points="12.260,-8.350 11.460,-7.950 12.260,-7.550 "/>
</svg>